<?xml version="1.0" encoding="UTF-8"?>
<svg width="100px" height="88px" viewBox="0 0 100 88" version="1.1" xmlns="http://www.w3.org/2000/svg" xmlns:xlink="http://www.w3.org/1999/xlink">
    <g fill="#4EC3C9">
        <path d="M93.1325,20.3653 L79.8676,6.98156 C79.8637,6.97636 79.8591,6.97268 79.8542,6.96875 L79.8485,6.9641 L79.8453,6.9612 L79.8433,6.95927 C79.8345,6.95036 79.8257,6.93922 79.8146,6.92807 C75.3878,2.46015 69.5002,0 63.2373,0 C58.431,0 53.8475,1.45514 49.9724,4.14704 C46.0973,1.45514 41.5161,0 36.7097,0 C30.4469,0 24.557,2.46015 20.1302,6.92807 L6.86528,20.3118 C2.43849,24.782 0,30.7229 0,37.0426 C0,43.3623 2.43849,49.3032 6.86528,53.7711 C11.2943,58.2391 17.1819,60.7014 23.4448,60.7014 C28.2511,60.7014 32.8346,59.2463 36.7097,56.5522 C40.5848,59.2463 45.1661,60.7014 49.9724,60.7014 C54.7744,60.7014 59.3534,59.2507 63.2263,56.5611 C67.1124,59.2842 71.7202,60.7549 76.553,60.7549 C82.8158,60.7549 88.7057,58.2925 93.1325,53.8268 C97.5593,49.3589 100,43.4158 100,37.0961 C100,30.7763 97.5593,24.8332 93.1325,20.3653 Z M29.509,49.8514 C24.2811,52.365 17.8219,51.4447 13.4988,47.0815 C8.01501,41.5462 8.01501,32.5412 13.4988,27.0059 L13.4988,27.0037 L26.7638,13.6199 C29.4185,10.9392 32.9538,9.46176 36.7119,9.46176 C38.8459,9.46176 40.9092,9.93863 42.7783,10.8434 L33.3951,20.3096 C29.7584,23.9797 27.4677,28.6438 26.7638,33.6933 C26.6093,34.7919 26.5298,35.9083 26.5298,37.0403 C26.5298,41.5372 27.7701,45.8403 30.0783,49.5595 C29.8886,49.6642 29.6966,49.76 29.509,49.8514 Z M59.9206,47.0815 C57.2658,49.7622 53.7306,51.2397 49.9724,51.2397 C46.2143,51.2397 42.6834,49.7645 40.0243,47.0815 C34.5404,41.5462 34.5404,32.5412 40.0243,27.0059 L49.9724,16.967 L59.9206,27.0059 C65.4066,32.5412 65.4066,41.5462 59.9206,47.0815 Z M86.499,47.135 C82.156,51.516 75.6593,52.4274 70.4204,49.8714 C70.2306,49.7778 70.043,49.682 69.8577,49.5817 C72.1748,45.8581 73.4194,41.5484 73.4194,37.0448 C73.4194,35.9128 73.3378,34.7986 73.1855,33.6978 C72.4815,28.6482 70.1887,23.9842 66.5519,20.314 L57.2261,10.9058 L57.1731,10.8523 C62.401,8.33865 68.8602,9.25897 73.1833,13.6222 L73.1879,13.6271 L73.195,13.635 L73.1951,13.6351 C73.1994,13.6401 73.204,13.6453 73.2098,13.6511 C73.2142,13.6556 73.2186,13.6595 73.223,13.6634 L73.229,13.6687 L73.2362,13.6756 L86.4372,26.997 L86.499,27.0594 C89.1559,29.7401 90.6212,33.3056 90.6212,37.0983 C90.6212,40.891 89.1581,44.452 86.499,47.135 Z M16.7876,87.9288 C20.2279,87.9288 23.0747,86.1795 23.0747,82.5606 C23.0747,78.8245 19.9375,78.0188 17.43,77.3749 L17.379,77.3618 C15.6003,76.9295 14.177,76.5707 14.177,75.3963 C14.177,74.2955 15.3399,73.7919 16.5029,73.7919 C17.8535,73.7919 19.0407,74.4626 19.0407,75.9245 L22.576,75.9245 C22.576,72.5685 20.4177,70.5095 16.5978,70.5095 C12.9191,70.5095 10.5711,72.3301 10.5711,75.5412 C10.5711,79.1517 13.5974,79.8996 16.1106,80.5207 L16.1233,80.5239 C17.9263,80.9317 19.4445,81.2904 19.4445,82.6096 C19.4445,83.8553 18.1161,84.5729 16.7633,84.5729 C15.2914,84.5729 13.9629,83.7818 13.9629,82.1773 L10.3328,82.1773 C10.3328,85.7717 12.9677,87.9288 16.7876,87.9288 Z M37.1217,82.1304 C37.1217,85.6268 34.7251,87.9755 31.095,87.9755 C27.4869,87.9755 25.0683,85.6268 25.0683,82.1304 L25.0683,74.6542 L28.5307,74.6542 L28.5307,81.7471 C28.5307,83.59 29.5039,84.6686 31.095,84.6686 C32.7082,84.6686 33.6571,83.5677 33.6571,81.7471 L33.6571,74.6542 L37.1217,74.6542 L37.1217,82.1304 Z M39.803,72.9296 L43.2433,72.9296 L43.2433,69.6939 L39.803,69.6939 L39.803,72.9296 Z M39.803,87.5924 L43.2654,87.5924 L43.2654,74.6543 L39.803,74.6543 L39.803,87.5924 Z M46.3505,70.8213 L52.7325,70.8213 C56.0559,70.8213 58.5937,73.2882 58.5937,76.5951 C58.5937,79.902 56.0779,82.3689 52.7325,82.3689 L49.9343,82.3689 L49.9343,87.5922 L46.3505,87.5922 L46.3505,70.8213 Z M49.9343,79.0151 L52.5669,79.0151 C53.9903,79.0151 54.9635,77.9834 54.9635,76.5951 C54.9635,75.2046 53.9903,74.1996 52.5669,74.1996 L49.9343,74.1996 L49.9343,79.0151 Z M70.8385,74.6542 L70.481,75.8754 C69.3665,74.8927 67.9189,74.2955 66.2572,74.2955 C62.4152,74.2955 59.5442,77.2169 59.5442,81.1233 C59.5442,85.0296 62.4152,87.9756 66.2572,87.9756 C67.8946,87.9756 69.318,87.4006 70.4103,86.4179 L70.7193,87.5923 L73.4226,87.5923 L73.4226,74.6542 L70.8385,74.6542 Z M66.5419,84.6686 C64.5249,84.6686 63.0552,83.1355 63.0552,81.1233 C63.0552,79.0865 64.5249,77.5779 66.5419,77.5779 C68.5589,77.5779 70.0308,79.0865 70.0308,81.1233 C70.0308,83.16 68.5589,84.6686 66.5419,84.6686 Z M85.6897,75.3718 L85.6897,70.0058 L89.1543,70.0058 L89.1543,87.6168 L86.5922,87.6168 L86.1884,86.5382 C85.1203,87.4474 83.7455,88.0001 82.1787,88.0001 C78.2881,88.0001 75.4414,85.0519 75.4414,81.1478 C75.4414,77.2169 78.2881,74.2955 82.1787,74.2955 C83.5072,74.2955 84.6944,74.6787 85.6897,75.3718 Z M78.9767,81.1478 C78.9767,83.16 80.4464,84.6931 82.4634,84.6931 C84.4804,84.6931 85.9523,83.16 85.9523,81.1478 C85.9523,79.111 84.4804,77.6002 82.4634,77.6002 C80.4464,77.6002 78.9767,79.111 78.9767,81.1478 Z"></path>
    </g>
</svg>